HIERARCHY
ROOT SimulationBone
{
	OFFSET 0.000000 0.000000 0.000000
	CHANNELS 6 Xposition Yposition Zposition Zrotation Yrotation Xrotation 
	JOINT Hips
	{
		OFFSET 0.000000 0.000000 0.000000
		CHANNELS 6 Xposition Yposition Zposition Zrotation Yrotation Xrotation 
		JOINT LeftUpLeg
		{
			OFFSET 0.103456 1.857840 10.548501
			CHANNELS 3 Zrotation Yrotation Xrotation
			JOINT LeftLeg
			{
				OFFSET 43.499992 -0.000038 -0.000006
				CHANNELS 3 Zrotation Yrotation Xrotation
				JOINT LeftFoot
				{
					OFFSET 42.372196 0.000031 0.000002
					CHANNELS 3 Zrotation Yrotation Xrotation
					JOINT LeftToe
					{
						OFFSET 17.299974 -0.000010 -0.000017
						CHANNELS 3 Zrotation Yrotation Xrotation
						End Site
						{
							OFFSET 0.000000 0.000000 0.000000
						}
					}
				}
			}
		}
		JOINT RightUpLeg
		{
			OFFSET 0.103462 1.857831 -10.548510
			CHANNELS 3 Zrotation Yrotation Xrotation
			JOINT RightLeg
			{
				OFFSET 43.500046 -0.000015 0.000008
				CHANNELS 3 Zrotation Yrotation Xrotation
				JOINT RightFoot
				{
					OFFSET 42.372265 -0.000015 0.000004
					CHANNELS 3 Zrotation Yrotation Xrotation
					JOINT RightToe
					{
						OFFSET 17.299995 -0.000004 0.000013
						CHANNELS 3 Zrotation Yrotation Xrotation
						End Site
						{
							OFFSET 0.000000 0.000000 0.000000
						}
					}
				}
			}
		}
		JOINT Spine
		{
			OFFSET 6.901966 -2.603716 -0.000002
			CHANNELS 3 Zrotation Yrotation Xrotation
			JOINT Spine1
			{
				OFFSET 12.588102 -0.000001 0.000005
				CHANNELS 3 Zrotation Yrotation Xrotation
				JOINT Spine2
				{
					OFFSET 12.343201 -0.000023 -0.000011
					CHANNELS 3 Zrotation Yrotation Xrotation
					JOINT Neck
					{
						OFFSET 25.832901 0.000011 0.000007
						CHANNELS 3 Zrotation Yrotation Xrotation
						JOINT Head
						{
							OFFSET 11.766600 -0.000002 0.000002
							CHANNELS 3 Zrotation Yrotation Xrotation
							End Site
							{
								OFFSET 0.000000 0.000000 0.000000
							}
						}
					}
					JOINT LeftShoulder
					{
						OFFSET 19.745907 -1.480350 6.000119
						CHANNELS 3 Zrotation Yrotation Xrotation
						JOINT LeftArm
						{
							OFFSET 11.284122 -0.000013 -0.000023
							CHANNELS 3 Zrotation Yrotation Xrotation
							JOINT LeftForeArm
							{
								OFFSET 33.000057 0.000005 0.000025
								CHANNELS 3 Zrotation Yrotation Xrotation
								JOINT LeftHand
								{
									OFFSET 25.199997 0.000020 0.000019
									CHANNELS 3 Zrotation Yrotation Xrotation
									End Site
									{
										OFFSET 0.000000 0.000000 0.000000
									}
								}
							}
						}
					}
					JOINT RightShoulder
					{
						OFFSET 19.746096 -1.480352 -6.000062
						CHANNELS 3 Zrotation Yrotation Xrotation
						JOINT RightArm
						{
							OFFSET 11.284150 0.000007 -0.000012
							CHANNELS 3 Zrotation Yrotation Xrotation
							JOINT RightForeArm
							{
								OFFSET 33.000092 0.000019 0.000012
								CHANNELS 3 Zrotation Yrotation Xrotation
								JOINT RightHand
								{
									OFFSET 25.199797 0.000118 0.000427
									CHANNELS 3 Zrotation Yrotation Xrotation
									End Site
									{
										OFFSET 0.000000 0.000000 0.000000
									}
								}
							}
						}
					}
				}
			}
		}
	}
}
MOTION
Frames: 13
Frame Time: 0.033333
99.841237 0.000000 -236.913325 0.000000 84.080793 0.000000 -1.144987 87.440750 -1.222337 89.957568 -4.160572 172.961635 153.444557 5.685406 170.327801 -30.815211 2.051610 -4.044559 79.294945 3.019385 0.655808 21.454558 0.003109 0.000018 172.850942 12.743001 -172.407867 -70.033550 -2.409940 -4.594627 63.518314 6.355403 7.154717 21.454545 -0.003086 -0.000002 7.017806 -1.402097 1.018799 3.999335 -2.838092 1.989688 3.681014 -2.826161 2.006796 5.003462 -5.267988 5.918996 -10.411363 -0.996375 5.461863 -166.304929 -74.402507 -15.427002 17.532546 58.222390 38.110120 -26.849071 -9.320985 0.831907 10.389018 0.959935 4.768004 -165.776874 83.919037 15.952125 -39.849127 -61.508155 -1.708356 -55.553654 18.094052 -2.146498 0.780932 11.515967 -6.212652 
100.529447 0.000000 -241.349381 0.000000 83.998964 0.000000 -1.555048 88.515228 -1.333884 89.789783 -3.588133 172.993977 156.837946 5.685897 170.514607 -29.505611 2.322712 -3.980361 81.073239 2.954408 0.732411 21.454560 0.003107 0.000016 165.977545 11.786890 -174.330634 -76.835025 -2.524407 -1.633679 67.734699 4.117597 7.756552 21.454548 -0.003091 -0.000002 6.928535 -1.222398 0.771541 3.828910 -2.469278 1.503047 3.510598 -2.460312 1.517944 5.677778 -5.425409 6.279430 -8.635419 -1.086571 5.840415 -167.944079 -74.469498 -13.745123 14.159972 58.093990 35.278070 -29.631379 -10.391889 0.951252 10.477978 -0.521555 5.571081 -165.729937 84.013588 15.999050 -40.317753 -61.744398 -4.976019 -50.447682 17.857977 -1.955515 2.624461 8.831713 -5.448542 
101.281127 0.000000 -245.745067 0.000000 83.927256 0.000000 -1.922038 89.550980 -1.345874 89.479352 -2.745048 173.696504 160.375560 5.530402 172.522328 -27.663441 2.051332 -4.504216 82.388235 3.209694 0.347080 21.454562 0.003111 0.000016 159.751937 10.308401 -174.107983 -79.461403 -2.919622 1.767013 68.960199 1.423421 7.340719 21.454555 -0.003092 -0.000005 6.805701 -0.953578 0.426302 3.592146 -1.919717 0.823334 3.273885 -1.914842 0.834901 7.131093 -5.671568 6.392716 -8.581151 -1.164397 6.029824 -168.580079 -74.298907 -13.093026 10.646154 57.625425 33.096897 -33.021342 -12.001132 1.124030 9.505799 -2.412044 5.191137 -163.840843 83.945368 17.907223 -39.774282 -62.147604 -8.227968 -45.229769 16.842961 -1.724768 3.567284 5.437636 -5.073106 
102.100382 0.000000 -250.096241 0.000000 83.873977 0.000000 -2.208545 90.354317 -1.256469 89.436676 -1.953631 174.956948 164.012117 5.272795 174.066142 -26.027037 2.054469 -4.523230 83.568000 3.098467 -0.120862 21.454560 0.003110 0.000018 154.787482 9.140504 -172.988024 -78.766534 -3.160060 3.923372 69.558455 -0.338272 6.864136 21.454555 -0.003098 0.000002 6.752224 -0.706248 0.084479 3.490949 -1.414653 0.147928 3.172741 -1.413869 0.156466 7.842851 -4.863757 6.154364 -7.895619 -2.047168 6.178955 -169.726075 -75.025632 -11.919922 7.739190 57.722653 30.745642 -37.318231 -13.500700 1.319896 8.260109 -5.185870 4.541901 -159.179225 83.338355 22.623031 -37.435167 -62.664431 -11.503298 -40.420100 14.853884 -1.459268 4.818529 3.683436 -6.441742 
102.966562 0.000000 -254.396360 0.000000 83.833897 0.000000 -2.379533 90.666580 -1.188047 89.494102 -1.951431 176.440433 167.147570 5.529208 174.633211 -25.403442 2.295134 -4.043353 85.126068 2.649028 -0.583165 21.454558 0.003102 0.000016 150.845752 9.218600 -172.420653 -75.393062 -2.573018 4.242851 71.272457 -0.520519 7.393419 21.454557 -0.003088 0.000001 6.679286 -0.663761 -0.257162 3.349022 -1.319876 -0.533173 3.030847 -1.323194 -0.525186 8.285755 -4.020629 5.973225 -6.764435 -2.428442 6.207300 -171.896983 -76.123572 -9.701894 5.996095 57.856647 27.605062 -42.707411 -14.424769 1.521669 7.011678 -7.410718 5.266185 -158.091791 82.677152 23.731931 -32.733258 -63.326051 -15.482456 -36.351407 12.586388 -1.209741 6.478927 3.540167 -6.117672 
103.875600 0.000000 -258.650500 0.000000 83.809069 0.000000 -2.505973 90.672890 -1.158609 89.126461 -2.008537 178.173328 169.582901 5.624106 175.643314 -25.385248 2.281651 -3.651816 87.196387 2.296868 -0.997448 21.454560 0.003099 0.000017 147.327904 9.597599 -172.072450 -69.458769 -1.561462 3.343069 72.191835 0.180207 7.874546 21.454555 -0.003090 -0.000002 6.508720 -0.645020 -0.579193 3.011331 -1.274942 -1.174746 2.693214 -1.282156 -1.167018 8.804291 -3.243669 5.736279 -6.636146 -2.607038 6.138526 -174.562013 -77.368333 -6.990002 4.455335 58.139663 24.186099 -48.204122 -14.882965 1.715292 5.456779 -8.855502 6.550831 -155.303229 82.371439 26.561011 -26.749625 -64.282681 -20.740711 -33.119792 10.762959 -1.018562 7.786208 4.346526 -4.091298 
104.810999 0.000000 -262.860026 0.000000 83.813955 0.000000 -2.472644 90.277420 -1.093317 88.712291 -2.209408 179.790385 171.855196 5.636193 176.834158 -25.880311 2.110398 -3.398063 90.006122 2.064478 -1.420998 21.454560 0.003110 0.000017 144.922995 9.816500 -171.831959 -60.941618 -1.102944 1.399967 72.359311 1.195704 6.805684 21.454550 -0.003091 0.000003 6.355762 -0.659254 -0.836353 2.708406 -1.299132 -1.687676 2.390374 -1.309440 -1.679796 8.539173 -2.731785 5.421697 -6.427675 -2.685239 5.889735 -174.906965 -77.866083 -6.644055 2.084656 57.716096 20.402552 -54.100877 -15.071606 1.922783 4.540911 -9.288758 7.523505 -152.335949 81.714969 29.580077 -19.479278 -64.497920 -27.770543 -30.420088 9.240449 -0.864429 8.147389 5.048936 -1.183037 
105.753358 0.000000 -267.028615 0.000000 83.869469 0.000000 -2.335845 89.635986 -1.108342 88.124512 -2.822714 -178.838183 174.225722 6.014603 177.788130 -25.956472 2.068641 -3.143483 92.774610 1.862316 -1.785276 21.454557 0.003106 0.000019 143.656965 10.587605 -171.974068 -49.591709 -0.443857 -0.340332 71.473476 2.629998 7.255055 21.454553 -0.003088 0.000001 6.186029 -0.788093 -1.030307 2.373527 -1.555377 -2.076335 2.055527 -1.568022 -2.066907 7.692128 -2.353206 5.233198 -5.878289 -2.493972 5.654506 -174.010011 -78.005808 -7.560061 -0.302376 57.116774 16.129292 -59.612190 -14.508208 2.083099 3.078694 -9.481004 8.469350 -149.796813 81.083279 32.169955 -11.865325 -64.329898 -35.246614 -28.030902 7.817456 -0.727093 8.493475 5.132030 1.352360 
106.693343 0.000000 -271.165855 0.000000 83.991807 0.000000 -2.051249 88.974831 -1.061671 87.568309 -3.027694 -177.403520 176.940996 5.822688 178.796430 -25.533380 2.057835 -2.828645 95.204142 1.638725 -2.118991 21.454560 0.003108 0.000018 144.228091 10.503009 -171.414526 -35.754657 -0.764465 -0.450737 71.744498 3.167810 8.749498 21.454553 -0.003088 0.000001 6.006891 -0.851692 -1.202479 2.018926 -1.682904 -2.419420 1.700978 -1.697617 -2.409232 6.917423 -2.046329 5.057648 -5.167025 -2.091083 5.374361 -174.833978 -78.318091 -6.721939 -1.102031 56.843361 12.806934 -64.724225 -13.346331 2.199678 2.301817 -9.625872 7.704063 -147.223170 80.884494 34.787065 -3.818847 -64.354186 -42.486505 -26.024556 6.632179 -0.615221 9.725866 3.697053 1.995674 
107.623083 0.000000 -275.279606 0.000000 84.189975 0.000000 -1.773044 88.326942 -0.941636 87.082602 -2.997982 -175.956469 179.764200 5.152805 179.646065 -24.848419 2.041764 -2.413103 97.025180 1.348048 -2.519505 21.454555 0.003112 0.000017 146.178438 9.734210 -169.838104 -21.590213 -2.404985 -0.048571 72.352371 2.882704 8.891273 21.454555 -0.003095 -0.000001 5.861339 -0.894140 -1.367564 1.731250 -1.768462 -2.748162 1.413403 -1.785140 -2.737443 6.105287 -1.534918 4.772028 -4.637023 -2.069171 5.122562 -176.871082 -78.541985 -4.649913 -1.360097 56.588339 9.805534 -69.156260 -12.030727 2.286796 1.742132 -9.336734 7.570483 -144.758797 80.736067 37.290029 3.575017 -64.389368 -48.607854 -23.723655 5.351585 -0.495263 9.853161 2.268542 2.029715 
108.513765 0.000000 -279.384714 0.000000 84.461722 0.000000 -1.329948 87.511673 -0.691235 86.802604 -3.362504 -174.669719 -177.776300 4.457200 -179.743012 -25.347068 1.812434 -1.843648 98.112758 0.940382 -3.108071 21.454557 0.003109 0.000019 148.184055 9.158403 -172.372446 -11.957085 -2.948744 3.166965 73.422888 1.014187 10.652357 21.454551 -0.003090 -0.000001 5.750303 -1.030184 -1.511633 1.515075 -2.041367 -3.036504 1.197236 -2.059795 -3.024123 5.491955 -1.157987 4.556460 -4.413336 -2.040691 4.938579 -178.642095 -78.894340 -2.852049 -0.925150 56.692233 8.399368 -71.820607 -11.064707 2.329767 0.169630 -9.642579 6.946900 -141.467807 80.805823 40.623066 10.287435 -64.627264 -53.886204 -21.614151 4.088403 -0.382145 10.374888 0.498781 1.400904 
109.362119 0.000000 -283.477075 0.000000 84.815848 0.000000 -1.183727 86.935997 -0.299891 86.910694 -2.465026 -173.673428 -176.217774 2.179391 178.528564 -27.415263 2.244277 -0.189800 98.522897 -0.201701 -3.477260 21.454560 0.003112 0.000016 148.602732 8.129711 -175.289401 -12.886774 -2.123597 4.644158 74.123125 0.589249 13.034961 21.454553 -0.003090 0.000002 5.748291 -0.893897 -1.587366 1.508520 -1.767913 -3.186105 1.190780 -1.787266 -3.175376 5.015601 -1.104029 4.432424 -4.400117 -1.717754 4.733123 -178.240958 -79.193981 -3.264896 -0.750299 57.304140 7.565113 -73.243561 -10.674584 2.362151 -0.386206 -9.838525 6.475490 -139.806186 80.785606 42.308118 15.727163 -64.631799 -57.770894 -20.018053 3.078627 -0.294586 11.089897 -1.910319 -0.740747 
110.160348 0.000000 -287.549437 0.000000 85.253904 0.000000 -0.864449 86.614853 0.288363 87.526161 -0.871283 -172.765104 -175.900102 -1.202804 176.482785 -32.329020 2.902849 1.675917 96.397807 -1.633569 -4.267834 21.454558 0.003105 0.000017 148.653029 6.715899 -171.574611 -17.779570 -1.786008 1.100871 66.887981 1.652271 6.616398 21.454553 -0.003101 -0.000002 5.829636 -0.568775 -1.615335 1.662280 -1.115213 -3.238486 1.344680 -1.134868 -3.231710 5.118928 -1.211217 4.285570 -5.057620 -1.716665 4.582213 -179.663072 -79.006403 -1.815923 0.331461 57.800244 8.068476 -72.934338 -10.847020 2.361137 -0.062886 -9.788247 6.145046 -139.262230 80.810912 42.856927 19.813972 -64.500024 -61.232345 -19.056373 2.510941 -0.245298 11.579565 -3.961978 -3.267041 
